<svg width="208" height="160" viewBox="0 0 208 160" fill="none" xmlns="http://www.w3.org/2000/svg">
<path d="M91.1781 14.2857C91.1781 6.39593 97.5565 0 105.425 0C113.293 0 119.671 6.39593 119.671 14.2857C119.671 22.1755 113.293 28.5714 105.425 28.5714C97.5565 28.5714 91.1781 22.1755 91.1781 14.2857Z" fill="#F97316"/>
<path d="M22.7945 45.7143C22.7945 36.2465 30.4486 28.5714 39.8904 28.5714H173.808C183.25 28.5714 190.904 36.2465 190.904 45.7143C190.904 55.182 183.25 62.8571 173.808 62.8571H39.8904C30.4486 62.8571 22.7945 55.182 22.7945 45.7143Z" fill="#1F3810"/>
<path d="M0 82.8571C0 76.5453 5.10273 71.4286 11.3973 71.4286H28.4932C34.7877 71.4286 39.8904 76.5453 39.8904 82.8571C39.8904 89.169 34.7877 94.2857 28.4932 94.2857H11.3973C5.10273 94.2857 0 89.169 0 82.8571Z" fill="#F97316"/>
<path d="M168.11 82.8571C168.11 76.5453 173.212 71.4286 179.507 71.4286H196.603C202.897 71.4286 208 76.5453 208 82.8571C208 89.169 202.897 94.2857 196.603 94.2857H179.507C173.212 94.2857 168.11 89.169 168.11 82.8571Z" fill="#F97316"/>
<path d="M34.1918 80C34.1918 70.5323 41.8459 62.8571 51.2877 62.8571H162.411C171.853 62.8571 179.507 70.5323 179.507 80V142.857C179.507 152.325 171.853 160 162.411 160H51.2877C41.8459 160 34.1918 152.325 34.1918 142.857V80Z" fill="url(#paint0_linear_462_384)"/>
<path d="M61.2888 85.3486V84.2286H69.0275V85.3486L66.8335 85.6286C66.408 85.6819 66.1554 85.8019 66.0756 85.9886C65.9958 86.1486 65.9559 86.6819 65.9559 87.5886V111.429H63.762L49.1222 87.7086V108.069C49.1222 108.975 49.1621 109.522 49.2419 109.709C49.3216 109.869 49.5743 109.975 49.9998 110.029L52.1938 110.309V111.429H44.455V110.309L46.649 110.029C47.0745 109.975 47.3271 109.869 47.4069 109.709C47.4867 109.522 47.5266 108.975 47.5266 108.069V87.5886C47.5266 86.6819 47.4867 86.1486 47.4069 85.9886C47.3271 85.8019 47.0745 85.6819 46.649 85.6286L44.455 85.3486V84.2286H52.473L64.3603 103.389V87.5886C64.3603 86.6819 64.3204 86.1486 64.2407 85.9886C64.1609 85.8019 63.9082 85.6819 63.4827 85.6286L61.2888 85.3486Z" fill="#F5F5DC"/>
<path d="M90.9975 110.429C90.572 110.829 90.0534 111.162 89.4417 111.429C88.8567 111.695 88.1387 111.829 87.2877 111.829C86.1973 111.829 85.2798 111.589 84.5352 111.109C83.8172 110.629 83.3385 109.949 83.0992 109.069C82.2216 110.029 81.2509 110.735 80.1872 111.189C79.15 111.615 78.0863 111.829 76.9959 111.829C75.161 111.829 73.7914 111.322 72.8872 110.309C71.983 109.269 71.5309 107.975 71.5309 106.429C71.5309 104.855 72.1027 103.589 73.2462 102.629C74.3898 101.642 76.4109 101.149 79.3096 101.149H82.9396V97.9086C82.9396 95.6952 82.6471 94.1886 82.062 93.3886C81.5035 92.5619 80.719 92.1486 79.7085 92.1486C79.0436 92.1486 78.432 92.3219 77.8735 92.6686C77.3151 92.9886 76.9162 93.6019 76.6768 94.5086C76.4641 95.3886 76.5039 96.6686 76.7965 98.3486L72.4085 97.7086C72.1958 96.4819 72.3288 95.3486 72.8074 94.3086C73.3127 93.2419 74.1504 92.3886 75.3205 91.7486C76.4907 91.0819 77.9799 90.7486 79.7883 90.7486C81.836 90.7486 83.4183 91.0819 84.5352 91.7486C85.6521 92.4152 86.4234 93.2952 86.8489 94.3886C87.301 95.4819 87.527 96.6552 87.527 97.9086V107.149C87.527 108.509 87.6467 109.362 87.886 109.709C88.1254 110.055 88.3913 110.229 88.6838 110.229C89.1625 110.229 89.6944 109.949 90.2794 109.389L90.9975 110.429ZM78.7511 109.709C79.4425 109.709 80.1207 109.535 80.7855 109.189C81.477 108.815 82.195 108.135 82.9396 107.149V102.549H79.9478C78.6447 102.549 77.7007 102.855 77.1156 103.469C76.5305 104.082 76.238 105.042 76.238 106.349C76.238 107.415 76.4508 108.242 76.8763 108.829C77.3018 109.415 77.9267 109.709 78.7511 109.709Z" fill="#F5F5DC"/>
<path d="M97.4631 87.7086C96.6387 87.7086 95.9739 87.4552 95.4686 86.9486C94.9633 86.4152 94.7107 85.7352 94.7107 84.9086C94.7107 84.0819 94.9633 83.4152 95.4686 82.9086C95.9739 82.4019 96.6387 82.1486 97.4631 82.1486C98.261 82.1486 98.9258 82.4019 99.4577 82.9086C99.9895 83.4152 100.255 84.0819 100.255 84.9086C100.255 85.7352 99.9895 86.4152 99.4577 86.9486C98.9258 87.4552 98.261 87.7086 97.4631 87.7086ZM92.1178 92.2686V91.1486H99.7768V108.069C99.7768 108.975 99.8167 109.522 99.8965 109.709C99.9762 109.869 100.229 109.975 100.654 110.029L102.848 110.309V111.429H92.1178V110.309L94.3118 110.029C94.7373 109.975 94.9899 109.869 95.0697 109.709C95.1495 109.522 95.1894 108.975 95.1894 108.069V94.5086C95.1894 93.6019 95.1495 93.0686 95.0697 92.9086C94.9899 92.7219 94.7373 92.6019 94.3118 92.5486L92.1178 92.2686Z" fill="#182D09"/>
<path d="M109.455 87.7086C108.63 87.7086 107.966 87.4552 107.46 86.9486C106.955 86.4152 106.702 85.7352 106.702 84.9086C106.702 84.0819 106.955 83.4152 107.46 82.9086C107.966 82.4019 108.63 82.1486 109.455 82.1486C110.253 82.1486 110.918 82.4019 111.449 82.9086C111.981 83.4152 112.247 84.0819 112.247 84.9086C112.247 85.7352 111.981 86.4152 111.449 86.9486C110.918 87.4552 110.253 87.7086 109.455 87.7086ZM104.11 92.2686V91.1486H111.769V112.789C111.769 114.122 111.542 115.362 111.09 116.509C110.638 117.655 109.907 118.575 108.896 119.269C107.886 119.989 106.543 120.349 104.867 120.349C103.405 120.349 102.155 119.975 101.118 119.229C100.081 118.482 99.4424 117.215 99.203 115.429L101.676 114.669C101.809 116.375 102.128 117.509 102.634 118.069C103.139 118.655 103.724 118.949 104.389 118.949C105.266 118.949 105.945 118.562 106.423 117.789C106.928 117.015 107.181 115.615 107.181 113.589V94.5086C107.181 93.6019 107.141 93.0686 107.061 92.9086C106.982 92.7219 106.729 92.6019 106.304 92.5486L104.11 92.2686Z" fill="#182D09"/>
<path d="M136.42 110.429C135.994 110.829 135.475 111.162 134.864 111.429C134.279 111.695 133.561 111.829 132.71 111.829C131.619 111.829 130.702 111.589 129.957 111.109C129.239 110.629 128.761 109.949 128.521 109.069C127.644 110.029 126.673 110.735 125.609 111.189C124.572 111.615 123.508 111.829 122.418 111.829C120.583 111.829 119.213 111.322 118.309 110.309C117.405 109.269 116.953 107.975 116.953 106.429C116.953 104.855 117.525 103.589 118.668 102.629C119.812 101.642 121.833 101.149 124.732 101.149H128.362V97.9086C128.362 95.6952 128.069 94.1886 127.484 93.3886C126.926 92.5619 126.141 92.1486 125.131 92.1486C124.466 92.1486 123.854 92.3219 123.296 92.6686C122.737 92.9886 122.338 93.6019 122.099 94.5086C121.886 95.3886 121.926 96.6686 122.219 98.3486L117.831 97.7086C117.618 96.4819 117.751 95.3486 118.23 94.3086C118.735 93.2419 119.573 92.3886 120.743 91.7486C121.913 91.0819 123.402 90.7486 125.21 90.7486C127.258 90.7486 128.84 91.0819 129.957 91.7486C131.074 92.4152 131.845 93.2952 132.271 94.3886C132.723 95.4819 132.949 96.6552 132.949 97.9086V107.149C132.949 108.509 133.069 109.362 133.308 109.709C133.547 110.055 133.813 110.229 134.106 110.229C134.585 110.229 135.116 109.949 135.702 109.389L136.42 110.429ZM124.173 109.709C124.865 109.709 125.543 109.535 126.208 109.189C126.899 108.815 127.617 108.135 128.362 107.149V102.549H125.37C124.067 102.549 123.123 102.855 122.538 103.469C121.953 104.082 121.66 105.042 121.66 106.349C121.66 107.415 121.873 108.242 122.298 108.829C122.724 109.415 123.349 109.709 124.173 109.709Z" fill="#182D09"/>
<path d="M108.673 144.549H109.79V151.429H90.0441V150.309L92.238 150.029C92.6635 149.975 92.9162 149.869 92.9959 149.709C93.0757 149.522 93.1156 148.975 93.1156 148.069V127.589C93.1156 126.682 93.0757 126.149 92.9959 125.989C92.9162 125.802 92.6635 125.682 92.238 125.629L90.0441 125.349V124.229H109.391V131.109H108.274L106.997 126.669C106.918 126.349 106.825 126.122 106.718 125.989C106.638 125.829 106.466 125.735 106.2 125.709C105.934 125.655 105.482 125.629 104.843 125.629H97.9025V136.989H102.45C103.088 136.989 103.54 136.975 103.806 136.949C104.072 136.895 104.245 136.802 104.325 136.669C104.431 136.509 104.524 136.269 104.604 135.949L105.482 132.709H106.599V142.669H105.482L104.604 139.429C104.524 139.109 104.431 138.882 104.325 138.749C104.245 138.589 104.072 138.495 103.806 138.469C103.54 138.415 103.088 138.389 102.45 138.389H97.9025V150.029H105.242C105.881 150.029 106.333 150.015 106.599 149.989C106.865 149.935 107.037 149.842 107.117 149.709C107.224 149.549 107.317 149.309 107.396 148.989L108.673 144.549Z" fill="#182D09"/>
<path d="M133.626 150.429C133.2 150.829 132.682 151.162 132.07 151.429C131.485 151.695 130.767 151.829 129.916 151.829C128.826 151.829 127.908 151.589 127.164 151.109C126.446 150.629 125.967 149.949 125.728 149.069C124.85 150.029 123.879 150.735 122.816 151.189C121.778 151.615 120.715 151.829 119.624 151.829C117.789 151.829 116.42 151.322 115.516 150.309C114.611 149.269 114.159 147.975 114.159 146.429C114.159 144.855 114.731 143.589 115.875 142.629C117.018 141.642 119.039 141.149 121.938 141.149H125.568V137.909C125.568 135.695 125.275 134.189 124.69 133.389C124.132 132.562 123.347 132.149 122.337 132.149C121.672 132.149 121.06 132.322 120.502 132.669C119.943 132.989 119.545 133.602 119.305 134.509C119.092 135.389 119.132 136.669 119.425 138.349L115.037 137.709C114.824 136.482 114.957 135.349 115.436 134.309C115.941 133.242 116.779 132.389 117.949 131.749C119.119 131.082 120.608 130.749 122.417 130.749C124.464 130.749 126.047 131.082 127.164 131.749C128.281 132.415 129.052 133.295 129.477 134.389C129.929 135.482 130.155 136.655 130.155 137.909V147.149C130.155 148.509 130.275 149.362 130.514 149.709C130.754 150.055 131.02 150.229 131.312 150.229C131.791 150.229 132.323 149.949 132.908 149.389L133.626 150.429ZM121.38 149.709C122.071 149.709 122.749 149.535 123.414 149.189C124.105 148.815 124.823 148.135 125.568 147.149V142.549H122.576C121.273 142.549 120.329 142.855 119.744 143.469C119.159 144.082 118.866 145.042 118.866 146.349C118.866 147.415 119.079 148.242 119.505 148.829C119.93 149.415 120.555 149.709 121.38 149.709Z" fill="#F5F5DC"/>
<path d="M148.947 147.269C148.602 148.895 147.937 150.069 146.953 150.789C145.995 151.482 144.825 151.829 143.442 151.829C142.033 151.829 140.876 151.522 139.972 150.909C139.068 150.269 138.403 149.429 137.977 148.389C137.552 147.349 137.339 146.242 137.339 145.069V134.509C137.339 133.602 137.299 133.069 137.219 132.909C137.14 132.722 136.887 132.602 136.462 132.549L134.268 132.269V131.149H137.339V126.509L141.927 125.589V131.149H148.309V132.549H141.927V145.869C141.927 147.575 142.139 148.762 142.565 149.429C142.99 150.069 143.535 150.389 144.2 150.389C144.892 150.389 145.424 150.122 145.796 149.589C146.195 149.055 146.447 148.082 146.554 146.669L148.947 147.269Z" fill="#F5F5DC"/>
<path d="M159.579 143.869L156.827 143.229C155.045 142.802 153.715 142.042 152.838 140.949C151.987 139.829 151.561 138.509 151.561 136.989C151.561 135.869 151.801 134.842 152.279 133.909C152.785 132.949 153.569 132.189 154.633 131.629C155.697 131.042 157.079 130.749 158.781 130.749C160.616 130.749 162.106 131.042 163.249 131.629C164.393 132.215 165.204 132.989 165.683 133.949C166.161 134.909 166.307 135.935 166.121 137.029L161.733 137.829C162.106 136.015 161.999 134.615 161.414 133.629C160.856 132.642 159.912 132.149 158.582 132.149C157.651 132.149 156.88 132.429 156.268 132.989C155.657 133.522 155.351 134.295 155.351 135.309C155.351 136.242 155.617 137.069 156.149 137.789C156.681 138.482 157.465 138.949 158.502 139.189L161.255 139.829C163.223 140.282 164.645 141.002 165.523 141.989C166.401 142.949 166.839 144.149 166.839 145.589C166.839 147.375 166.174 148.869 164.845 150.069C163.542 151.242 161.587 151.829 158.981 151.829C158.077 151.829 157.079 151.695 155.989 151.429C154.925 151.135 153.941 150.615 153.037 149.869C152.16 149.122 151.521 148.055 151.123 146.669L153.715 145.629C153.902 147.389 154.5 148.629 155.51 149.349C156.548 150.069 157.704 150.429 158.981 150.429C160.178 150.429 161.148 150.162 161.893 149.629C162.664 149.069 163.05 148.269 163.05 147.229C163.05 146.509 162.797 145.855 162.292 145.269C161.813 144.655 160.909 144.189 159.579 143.869Z" fill="#F5F5DC"/>
<defs>
<linearGradient id="paint0_linear_462_384" x1="179.507" y1="111.429" x2="34.1918" y2="111.429" gradientUnits="userSpaceOnUse">
<stop offset="0.25" stop-color="#2D5016"/>
<stop offset="0.5" stop-color="#F1F1D8"/>
<stop offset="0.75" stop-color="#2D5016"/>
</linearGradient>
</defs>
</svg>
